<?xml version="1.0" encoding="iso-8859-1"?>
<!-- Generator: Adobe Illustrator 19.0.0, SVG Export Plug-In . SVG Version: 6.00 Build 0)  -->
<svg version="1.1" id="Capa_1" xmlns="http://www.w3.org/2000/svg" xmlns:xlink="http://www.w3.org/1999/xlink" x="0px" y="0px"
	 viewBox="0 0 52.798 52.798" style="enable-background:new 0 0 52.798 52.798;" xml:space="preserve">
<g>
	<g>
		<path d="M17.569,22.872c1.05-0.746,1.582-1.937,1.582-3.539c0-0.871-0.171-1.616-0.518-2.229
			c-0.356-0.608-0.835-1.082-1.403-1.397c-0.548-0.321-1.148-0.534-1.814-0.647c-0.586-0.111-1.219-0.165-1.935-0.165H6v9h8
			C15.414,23.896,16.615,23.551,17.569,22.872z M8,16.896h5.483c0.589,0,1.1,0.043,1.582,0.134c0.441,0.074,0.819,0.206,1.174,0.414
			c0.275,0.152,0.494,0.373,0.662,0.659c0.167,0.294,0.251,0.708,0.251,1.231c0,1.383-0.557,1.778-0.74,1.908l-0.001,0.001
			c-0.618,0.439-1.406,0.653-2.41,0.653H8V16.896z"/>
		<path d="M23.073,24.855c0.701-0.532,1.285-1.139,1.748-1.816c0.813-1.206,1.226-2.709,1.226-4.467c0-1.6-0.271-2.97-0.806-4.075
			c-0.553-1.138-1.344-2.063-2.354-2.755c-0.986-0.669-2.151-1.149-3.464-1.43c-1.28-0.28-2.666-0.416-4.237-0.416H0v33.007h15.596
			c1.464,0,2.908-0.187,4.29-0.555c1.434-0.38,2.723-0.971,3.834-1.759c1.156-0.825,2.079-1.889,2.743-3.158
			c0.673-1.277,1.014-2.802,1.014-4.529c0-2.141-0.528-4.005-1.569-5.54C25.199,26.318,24.25,25.48,23.073,24.855z M24.691,36.502
			c-0.518,0.99-1.236,1.818-2.131,2.457c-0.913,0.647-1.985,1.137-3.188,1.456c-1.215,0.323-2.485,0.487-3.776,0.487H2V11.896
			h13.186c1.427,0,2.674,0.121,3.814,0.37l0.005,0.002c1.06,0.226,1.988,0.605,2.756,1.126c0.726,0.497,1.276,1.144,1.681,1.976
			c0.401,0.83,0.605,1.907,0.605,3.202c0,1.353-0.297,2.479-0.881,3.344c-0.609,0.892-1.535,1.638-2.752,2.218l-2.374,1.131
			l2.525,0.731c1.673,0.485,2.879,1.3,3.685,2.489c0.824,1.215,1.225,2.659,1.225,4.417C25.476,34.301,25.212,35.512,24.691,36.502z
			"/>
		<path d="M14.134,26.896H6v11h8c0.766,0,1.482-0.078,2.13-0.23c0.757-0.176,1.417-0.464,1.944-0.848
			c0.604-0.42,1.086-0.985,1.428-1.675c0.345-0.688,0.513-1.527,0.513-2.568c0-1.98-0.573-3.453-1.712-4.387
			C17.235,27.33,15.833,26.896,14.134,26.896z M17.713,34.249c-0.193,0.389-0.456,0.701-0.798,0.938
			c-0.33,0.24-0.734,0.413-1.236,0.528l-0.006,0.002c-0.498,0.118-1.061,0.178-1.673,0.178H8v-7h6.134
			c1.231,0,2.213,0.287,2.91,0.846c0.645,0.528,0.972,1.481,0.972,2.833C18.016,33.286,17.915,33.848,17.713,34.249z"/>
		<path d="M46.618,27.884c-0.157-1.735-0.713-3.169-1.655-4.264c-0.918-1.061-2.419-1.646-4.227-1.646
			c-1.144,0-2.125,0.218-2.918,0.648c-0.751,0.41-1.378,0.931-1.872,1.559c-0.467,0.611-0.801,1.282-0.991,1.987
			c-0.178,0.644-0.283,1.231-0.313,1.749l-0.061,1.058h12.136L46.618,27.884z M36.812,26.974c0.022-0.091,0.046-0.185,0.073-0.28
			c0.125-0.466,0.338-0.891,0.642-1.288c0.317-0.402,0.737-0.749,1.247-1.027c0.495-0.269,1.155-0.404,1.963-0.404
			c1.218,0,2.182,0.339,2.712,0.953c0.468,0.543,0.802,1.229,1.001,2.047H36.812z"/>
		<path d="M45.013,34.302c-0.14,0.453-0.571,0.935-1.245,1.395c-0.725,0.492-1.614,0.741-2.642,0.741
			c-1.451,0-2.555-0.35-3.28-1.039l0-0.001c-0.559-0.529-0.966-1.453-1.128-2.495h15.977l0.063-0.933
			c0.122-1.79-0.033-3.527-0.458-5.163c-0.438-1.68-1.156-3.187-2.132-4.476c-1.003-1.331-2.292-2.399-3.829-3.173
			c-1.547-0.786-3.371-1.185-5.418-1.185c-1.827,0-3.524,0.324-5.046,0.965c-1.507,0.637-2.833,1.525-3.941,2.643
			c-1.087,1.095-1.948,2.435-2.56,3.984c-0.593,1.521-0.893,3.175-0.893,4.914c0,1.798,0.292,3.478,0.869,4.994
			c0.581,1.52,1.416,2.851,2.49,3.968c1.108,1.123,2.402,1.964,3.961,2.571c1.538,0.59,3.262,0.89,5.122,0.89
			c2.72,0,5.077-0.622,7-1.846c1.977-1.237,3.458-3.305,4.402-6.145l0.438-1.315h-7.529L45.013,34.302z M46.616,35.597h3.303
			c-0.764,1.721-1.773,2.96-3.065,3.769c-1.604,1.02-3.6,1.537-5.933,1.537c-1.615,0-3.097-0.255-4.4-0.755
			c-1.287-0.502-2.353-1.192-3.25-2.102c-0.891-0.926-1.563-2.002-2.054-3.285c-0.489-1.287-0.737-2.728-0.737-4.281
			c0-1.49,0.254-2.899,0.755-4.184c0.518-1.31,1.211-2.392,2.119-3.307c0.923-0.931,2.034-1.674,3.298-2.208
			c1.274-0.536,2.711-0.808,4.27-0.808c1.73,0,3.249,0.325,4.516,0.97c1.263,0.636,2.317,1.507,3.135,2.593
			c0.818,1.081,1.421,2.352,1.792,3.775c0.298,1.143,0.443,2.347,0.434,3.591H34.641v1c0,1.979,0.701,3.875,1.828,4.945
			c1.109,1.055,2.677,1.59,4.658,1.59c1.435,0,2.702-0.365,3.766-1.087C45.677,36.816,46.254,36.229,46.616,35.597z"/>
		<path d="M48,11.896H33v5h15V11.896z M46,14.896H35v-1h11V14.896z"/>
	</g>
</g>
<g>
</g>
<g>
</g>
<g>
</g>
<g>
</g>
<g>
</g>
<g>
</g>
<g>
</g>
<g>
</g>
<g>
</g>
<g>
</g>
<g>
</g>
<g>
</g>
<g>
</g>
<g>
</g>
<g>
</g>
</svg>
