<svg version="1.1" focusable="false" xmlns="http://www.w3.org/2000/svg" xmlns:xlink="http://www.w3.org/1999/xlink"
	 x="0px" y="0px" viewBox="1 141 512 512" style="enable-background:new 1 141 512 512;" xml:space="preserve">
<style type="text/css">
	.st0{fill:none;stroke:#000000;stroke-width:18;stroke-miterlimit:10;}
</style>
<path class="st0" d="M211.3,380.5c26-13.3,39.5-33.5,39.5-65c0-62-43-77.1-92.5-77.1H21.8v311.1h140.3c52.6,0,102-27.1,102-90.3
	C264.1,420.2,246.9,391.3,211.3,380.5L211.3,380.5z M85.4,291.6h59.7c22.9,0,43.6,6.9,43.6,35.6c0,26.4-16.1,37-38.8,37H85.4
	C85.4,364.2,85.4,291.6,85.4,291.6z M153.5,496.8h-68v-85.7h69.3c28,0,45.7,12.6,45.7,44.4C200.5,486.9,179.3,496.8,153.5,496.8
	L153.5,496.8z M446.2,285.5H328.9v-30.6h117.3V285.5L446.2,285.5z M492.2,440.2c0-66.6-36.3-122.2-102-122.2
	C326.3,318,283,369.7,283,437.3c0,70.1,41.1,118.2,107.2,118.2c50.1,0,82.5-24.2,98.1-75.8h-50.8c-5.5,19.2-28,29.4-45.5,29.4
	c-33.7,0-51.4-21.2-51.4-57.3h151.2C491.9,448.1,492.2,444.2,492.2,440.2z M340.6,412.8c1.9-29.6,20.2-48.1,47.8-48.1
	c28.9,0,43.4,18.3,45.9,48.1H340.6z"/>
</svg>
