<svg version="1.1" focusable="false" xmlns="http://www.w3.org/2000/svg" xmlns:xlink="http://www.w3.org/1999/xlink" x="0px" y="0px" viewBox="-65 141 512 512" style="" xml:space="preserve">
<path class="yADcdJGG_0" d="M138.1,464.6c0,20.5-10.7,54-35.9,54s-35.9-33.5-35.9-54s10.7-54,35.9-54S138.1,444.1,138.1,464.6z M426,418.7
	c0,31.2-3.1,64.3-17.1,93c-37.1,75-139.1,73.2-212.2,73.2c-74.2,0-182.3,2.6-220.9-73.2C-38.5,483.4-44,450-44,418.7
	c0-41,13.6-79.8,40.6-111.2c-5.1-15.5-7.5-31.7-7.5-47.8c0-21.1,4.8-31.6,14.3-50.7c44.4,0,72.8,8.8,106.5,35.3
	c28.4-6.8,57.6-9.8,86.9-9.8c26.4,0,53.1,2.8,78.7,9c33.3-26.1,61.7-34.5,105.6-34.5c9.6,19.1,14.3,29.7,14.3,50.7
	c0,16.1-2.5,32-7.5,47.2C414.7,338.6,426,377.7,426,418.7L426,418.7z M363.4,457.4c0-43-26.1-80.9-72-80.9
	c-18.5,0-36.2,3.3-54.8,5.9c-14.6,2.3-29.2,3.1-44.2,3.1c-14.9,0-29.5-0.9-44.2-3.1c-18.3-2.5-36.2-5.9-54.8-5.9
	c-45.8,0-72,37.9-72,80.9c0,86,78.7,99.2,147.3,99.2H216C284.8,556.6,363.4,543.5,363.4,457.4z M281.9,409.8
	c-25.3,0-35.9,33.5-35.9,54c0,20.5,10.7,54,35.9,54c24.3,0,35.1-31.1,35.9-51.7c0-0.8,0-1.5,0-2.3
	C317.8,443.3,307.2,409.8,281.9,409.8z">
</path>
<style>
	.yADcdJGG_0{
		stroke-width:17;
		stroke-miterlimit:10;
		stroke-dasharray:2980 2982;
		stroke-dashoffset:2981;
		stroke:rgba(0,0,0,0.6);
		fill:rgba(0,0,0,0.15);
		opacity:10;
		animation:
			yADcdJGG_draw_0 8300ms ease-in 0ms infinite,
			yADcdJGG_fade 8300ms linear 0ms infinite;
	}
	@keyframes yADcdJGG_draw{
		opacity: 0;
		fill:#000;
		100%{stroke-dashoffset:0;}
	}
	@keyframes yADcdJGG_fade{
		0%{stroke-opacity:1;}
		81.92771084337349%{
			opacity:10;
			fill:rgba(0,0,0,0.4);
			stroke:#000;
			stroke-opacity:1;
		}
		100%{stroke-opacity:0;}
	}
	@keyframes yADcdJGG_draw_0{
		9.63855421686747%{stroke-dashoffset: 2981}
		57.831325301204814%{stroke-dashoffset:0;}
		100%{stroke-dashoffset:0;}
	}
</style>
</svg>
