
<svg version="1.1" focusable="false" xmlns="http://www.w3.org/2000/svg" xmlns:xlink="http://www.w3.org/1999/xlink"
	 x="0px" y="0px" viewBox="-49 141 512 512" style="enable-background:new -49 141 512 512;" xml:space="preserve">
<style type="text/css">
	.st0{fill:none;stroke:#000000;stroke-width:18;stroke-miterlimit:10;}
</style>
<path class="st0" d="M207.4,298.1c-57,0-103,44.2-103,98.9s46,98.9,103,98.9s103-44.2,103-98.9S264.4,298.1,207.4,298.1z
	 M207.4,461.3c-36.9,0-67-28.8-67-64.3s30-64.3,67-64.3s67,28.8,67,64.3S244.2,461.3,207.4,461.3L207.4,461.3z M338.6,294
	c0,12.8-10.8,23.1-24,23.1c-13.3,0-24-10.3-24-23.1s10.8-23.1,24-23.1S338.6,281.2,338.6,294z M406.9,317.4
	c-1.5-31-8.9-58.3-32.5-80.9c-23.5-22.6-52-29.6-84.2-31.2c-33.2-1.8-132.6-1.8-165.8,0c-32.1,1.5-60.6,8.5-84.2,31.1
	S9.2,286.4,7.6,317.4c-1.9,31.9-1.9,127.4,0,159.2c1.5,31,8.9,58.3,32.5,80.9s52,29.6,84.2,31.2c33.2,1.8,132.6,1.8,165.8,0
	c32.2-1.5,60.7-8.5,84.2-31.2c23.5-22.6,30.9-49.9,32.5-80.9C408.8,444.7,408.8,349.3,406.9,317.4L406.9,317.4z M364,510.7
	c-7,16.9-20.5,29.9-38.2,36.7c-26.4,10.1-89.3,7.7-118.4,7.7s-92.1,2.2-118.4-7.7c-17.6-6.7-31.1-19.7-38.2-36.7
	c-10.5-25.4-8-85.7-8-113.7c0-28-2.3-88.4,8-113.7c7-16.9,20.5-29.9,38.2-36.7c26.4-10.1,89.3-7.7,118.4-7.7s92.1-2.2,118.4,7.7
	c17.6,6.7,31.1,19.7,38.2,36.7c10.5,25.4,8,85.7,8,113.7C372.1,425,374.5,485.4,364,510.7z"/>
</svg>
