<svg version="1.1" focusable="false" xmlns="http://www.w3.org/2000/svg" xmlns:xlink="http://www.w3.org/1999/xlink" x="0px" y="0px" viewBox="-49 141 512 512" style="" xml:space="preserve">
<path class="ELTiHGsF_0" d="M88.8,583.5H0.1v-249h88.7V583.5z M44.3,300.5C15.9,300.5-7,280-7,255.3s23-44.8,51.4-44.8
	c28.4,0,51.4,20.1,51.4,44.8C95.8,280,72.7,300.5,44.3,300.5z M420.9,583.5h-88.5V462.2c0-28.9-0.6-65.9-46.2-65.9
	c-46.2,0-53.2,31.4-53.2,63.9v123.3h-88.6v-249h85.1v34h1.3c11.8-19.6,40.8-40.2,84-40.2c89.8,0,106.3,51.5,106.3,118.5v136.8H420.9
	z">
</path>
<style>
	.ELTiHGsF_0{
		stroke-width:18;
		stroke-miterlimit:10;
		stroke-dasharray:2379 2381;
		stroke-dashoffset:2380;
		stroke:rgba(0,0,0,0.6);
		fill:none;
		opacity:10;
		animation:
			ELTiHGsF_draw_0 8300ms ease-in 0ms infinite,
			ELTiHGsF_fade 8300ms linear 0ms infinite;
	}
	@keyframes ELTiHGsF_draw{
		opacity:0;
		fill:#000;
		100%{stroke-dashoffset:0;}
	}
	@keyframes ELTiHGsF_fade{
		0%{stroke-opacity:1;}
		81.92771084337349%{
			opacity:10;
			fill:rgba(0,0,0,0.15);
			stroke:#000;
			stroke-opacity:1;}
		100%{stroke-opacity:0;}
	}
	@keyframes ELTiHGsF_draw_0{
		9.63855421686747%{stroke-dashoffset:2380}
		57.831325301204814%{ stroke-dashoffset:0;}
		100%{stroke-dashoffset:0;}
	}
</style>
</svg>
