<?xml version="1.0" encoding="iso-8859-1"?>
<!-- Generator: Adobe Illustrator 19.0.0, SVG Export Plug-In . SVG Version: 6.00 Build 0)  -->
<svg version="1.1" id="Layer_1" xmlns="http://www.w3.org/2000/svg" xmlns:xlink="http://www.w3.org/1999/xlink" x="0px" y="0px"
	 viewBox="0 0 194.577 194.577" style="enable-background:new 0 0 194.577 194.577;" xml:space="preserve">
<g>
	<g>
		<g>
			<path d="M191.102,34.746H3.475C1.554,34.746,0,36.3,0,38.22v118.136c0,1.92,1.554,3.475,3.475,3.475h187.627
				c1.92,0,3.475-1.554,3.475-3.475V38.22C194.576,36.3,193.022,34.746,191.102,34.746z M187.627,152.881H6.949V41.695h180.678
				V152.881z"/>
			<rect x="20.847" y="97.288" width="76.529" height="6.949"/>
			<rect x="20.847" y="125.085" width="48.644" height="6.949"/>
			<rect x="20.847" y="111.186" width="27.797" height="6.949"/>
			<rect x="59.068" y="111.186" width="17.373" height="6.949"/>
			<path d="M138.983,93.814h38.22c1.92,0,3.475-1.554,3.475-3.475v-38.22c0-1.92-1.554-3.475-3.475-3.475h-38.22
				c-1.92,0-3.475,1.554-3.475,3.475v38.22C135.508,92.259,137.063,93.814,138.983,93.814z M142.458,55.593h31.271v31.271h-31.271
				V55.593z"/>
		</g>
	</g>
</g>
<g>
</g>
<g>
</g>
<g>
</g>
<g>
</g>
<g>
</g>
<g>
</g>
<g>
</g>
<g>
</g>
<g>
</g>
<g>
</g>
<g>
</g>
<g>
</g>
<g>
</g>
<g>
</g>
<g>
</g>
</svg>
