<svg version="1.1" focusable="false" xmlns="http://www.w3.org/2000/svg" xmlns:xlink="http://www.w3.org/1999/xlink" x="0px" y="0px" viewBox="-49 141 512 512" style="" xml:space="preserve">
<path class="aUZmwalm_0" d="M397.9,220.8H16.1c-24.3,0-44.1,19.7-44.1,44.1v264.4c0,24.3,19.7,44.1,44.1,44.1h381.9
	c24.3,0,44.1-19.7,44.1-44.1V264.8C442,240.5,422.3,220.8,397.9,220.8z M397.9,264.8v37.5c-20.6,16.8-53.4,42.8-123.5,97.8
	c-15.5,12.2-46.1,41.4-67.4,41c-21.3,0.3-51.9-28.9-67.4-41c-70.1-54.9-103-81-123.5-97.8v-37.5H397.9z M16.1,529.2V358.8
	c21,16.8,50.9,40.3,96.3,75.9c20.1,15.8,55.2,50.7,94.6,50.4c39.2,0.2,73.9-34.1,94.6-50.4c45.5-35.6,75.3-59.1,96.3-75.9v170.4
	H16.1z">
</path>
<style>
	.aUZmwalm_0{
		stroke-width:18;
		stroke-miterlimit:10;
		stroke-dasharray:3689 3691;
		stroke-dashoffset:3690;
		stroke:rgba(0,0,0,0.6);
		fill:rgba(0,0,0,0.15);
		opacity:10;
		animation:
			aUZmwalm_draw_0 8300ms ease-in 0ms infinite,
			aUZmwalm_fade 8300ms linear 0ms infinite;
	}
	@keyframes aUZmwalm_draw{
		opacity:0;
		fill:#000;
		100%{stroke-dashoffset:0;}
	}
	@keyframes aUZmwalm_fade{
		0%{stroke-opacity:1;}
		81.92771084337349%{
			opacity:10;
			fill:rgba(0,0,0,0.4);
			stroke:#000;
			stroke-opacity:1;}
		100%{stroke-opacity:0;}
	}
	@keyframes aUZmwalm_draw_0{
		9.63855421686747%{stroke-dashoffset:3690}
		57.831325301204814%{stroke-dashoffset:0;}
		100%{stroke-dashoffset:0;}
	}
</style>
</svg>
