<svg version="1.1" focusable="false" xmlns="http://www.w3.org/2000/svg" xmlns:xlink="http://www.w3.org/1999/xlink" x="0px" y="0px" viewBox="-81 141 512 512" style="" xml:space="preserve">
<path class="animation" d="M339.6,230.5c-44-44.2-102.5-68.5-164.7-68.5C46.5,162-58.1,266.8-58.1,395.5c0,41.1,10.7,81.3,31.1,116.7
	l-33.1,121l123.5-32.5c34,18.6,72.3,28.4,111.3,28.4h0.1c128.3,0,235.1-104.8,235.1-233.5C410,333.2,383.6,274.6,339.6,230.5z
	 M174.9,589.8c-34.8,0-68.9-9.4-98.6-27l-7-4.2L-4,577.8l19.5-71.6l-4.6-7.4c-19.4-30.9-29.6-66.6-29.6-103.3
	c0-107,86.9-194.1,193.7-194.1c51.7,0,100.3,20.2,136.8,56.9s59,85.4,58.9,137.3C370.7,502.7,281.6,589.8,174.9,589.8z M281.1,444.4
	c-5.8-2.9-34.4-17-39.8-18.9c-5.4-2-9.2-2.9-13.1,2.9c-3.9,5.9-15,18.9-18.5,22.9c-3.4,3.9-6.8,4.4-12.6,1.5
	c-34.2-17.1-56.7-30.6-79.2-69.4c-6-10.3,6-9.6,17.1-31.9c1.9-3.9,0.9-7.3-0.5-10.2c-1.5-2.9-13.1-31.7-17.9-43.3
	c-4.7-11.4-9.5-9.8-13.1-10c-3.4-0.2-7.2-0.2-11.1-0.2c-3.9,0-10.2,1.5-15.5,7.3c-5.4,5.9-20.4,20-20.4,48.7
	c0,28.7,20.9,56.5,23.7,60.4c2.9,3.9,41,62.8,99.5,88.1c36.9,16,51.4,17.4,69.9,14.6c11.2-1.7,34.4-14.1,39.2-27.8
	s4.8-25.3,3.4-27.8C290.7,448.7,286.9,447.2,281.1,444.4z">
</path>
<style>
	.animation{
		stroke-width:18;
		stroke-miterlimit:10;
		stroke-dasharray:3660 3662;
		stroke-dashoffset:3661;
		stroke: rgba(0,0,0,0.6);
		fill: rgba(0,0,0,0.15);
		opacity: 10;
		animation:
			wtJUtAnv_draw_0 7500ms ease-in 0ms infinite,
			wtJUtAnv_fade 7500ms linear 0ms infinite;
	}
	@keyframes wtJUtAnv_draw{
		opacity: 0;
		fill:#000;
		100%{stroke-dashoffset:0;}
	}
	@keyframes wtJUtAnv_fade{
		0%{stroke-opacity:1;}
		80%{
			opacity: 10;
			fill: rgba(0,0,0,0.5);
			stroke: #000;
			stroke-opacity:1;
		}
		100%{
			stroke-opacity:0;}
	}
	@keyframes wtJUtAnv_draw_0{
		13.333333333333334%{stroke-dashoffset: 3661}
		66.66666666666666%{stroke-dashoffset: 0;}
		100%{stroke-dashoffset: 0;}
	}
</style>
</svg>