<svg version="1.1" focusable="false" xmlns="http://www.w3.org/2000/svg" xmlns:xlink="http://www.w3.org/1999/xlink" x="0px" y="0px" viewBox="-113 141 512 512" style="" xml:space="preserve">
<path class="animation" d="M143.1,276.5c-66.7,0-120.5,53.8-120.5,120.5s53.8,120.5,120.5,120.5S263.6,463.7,263.6,397
	S209.8,276.5,143.1,276.5z M143.1,475.3c-43.1,0-78.3-35.1-78.3-78.3s35.1-78.3,78.3-78.3s78.3,35.1,78.3,78.3
	S186.2,475.3,143.1,475.3L143.1,475.3z M296.6,271.6c0,15.6-12.6,28.1-28.1,28.1c-15.6,0-28.1-12.6-28.1-28.1
	c0-15.5,12.6-28.1,28.1-28.1S296.6,256,296.6,271.6z M376.4,300.1c-1.8-37.7-10.4-71-38-98.5c-27.5-27.5-60.8-36.1-98.5-38
	c-38.8-2.2-155.1-2.2-193.9,0c-37.5,1.8-70.9,10.4-98.5,37.9s-36.1,60.8-38,98.5c-2.2,38.8-2.2,155.1,0,193.9
	c1.8,37.7,10.4,71,38,98.5c27.6,27.5,60.8,36.1,98.5,38c38.8,2.2,155.1,2.2,193.9,0c37.7-1.8,71-10.4,98.5-38
	c27.5-27.5,36.1-60.8,38-98.5C378.6,455.1,378.6,338.9,376.4,300.1L376.4,300.1z M326.3,535.5c-8.2,20.6-24,36.4-44.7,44.7
	c-30.9,12.3-104.4,9.4-138.5,9.4s-107.7,2.7-138.5-9.4c-20.6-8.2-36.4-24-44.7-44.7c-12.3-30.9-9.4-104.4-9.4-138.5
	s-2.7-107.7,9.4-138.5c8.2-20.6,24-36.4,44.7-44.7c30.9-12.3,104.4-9.4,138.5-9.4s107.7-2.7,138.5,9.4c20.6,8.2,36.4,24,44.7,44.7
	c12.3,30.9,9.4,104.4,9.4,138.5S338.5,504.7,326.3,535.5z">
</path>
<style>
	.animation{
		stroke-width:18;
		stroke-miterlimit:10;
		stroke-dasharray:4443 4445;
		stroke-dashoffset:4444;
		stroke: rgba(0,0,0,0.6);
		fill: rgba(0,0,0,0.15);
		opacity: 10;
		animation:
			AukxYEzJ_draw_0 7500ms ease-in 0ms infinite,
			AukxYEzJ_fade 7500ms linear 0ms infinite;
	}
	@keyframes AukxYEzJ_draw{
		opacity: 0;
		fill:#000;
		100%{stroke-dashoffset:0;}
	}
	@keyframes AukxYEzJ_fade{
		0%{stroke-opacity:1;}
		80%{
			opacity: 10;
			fill: rgba(0,0,0,0.5);
			stroke: #000;
			stroke-opacity:1;
		}
		100%{stroke-opacity:0;}
	}
	@keyframes AukxYEzJ_draw_0{
		13.333333333333334%{stroke-dashoffset: 4444}
		66.66666666666666%{stroke-dashoffset: 0;}
		100%{stroke-dashoffset: 0;}
	}
</style>
</svg>