<svg version="1.1" focusable="false" xmlns="http://www.w3.org/2000/svg" xmlns:xlink="http://www.w3.org/1999/xlink" x="0px" y="0px" viewBox="-49 141 512 512" style="" xml:space="preserve">
<path class="st0 cZytTyha_0" d="M344.1,264.3c-36.7-35.1-85.4-54.4-137.2-54.4c-107,0-194.1,83.2-194.1,185.5c0,32.6,8.9,64.6,25.9,92.7
	l-27.6,96.1L114,558.3c28.3,14.8,60.2,22.6,92.7,22.6h0.1c106.9,0,195.9-83.2,195.9-185.5C402.8,345.8,380.8,299.3,344.1,264.3z
	 M206.9,549.7c-29,0-57.4-7.5-82.2-21.4l-5.8-3.3l-61.1,15.3l16.2-56.9l-3.8-5.9c-16.2-24.5-24.7-52.9-24.7-82.1
	c0-85,72.4-154.2,161.4-154.2c43.1,0,83.6,16,114,45.2c30.4,29.2,49.2,67.8,49.1,109.1C370,480.5,295.8,549.7,206.9,549.7z
	 M295.4,434.2c-4.8-2.3-28.7-13.5-33.2-15c-4.5-1.6-7.7-2.3-10.9,2.3c-3.2,4.7-12.5,15-15.4,18.2c-2.8,3.1-5.7,3.5-10.5,1.2
	c-28.5-13.6-47.2-24.3-66-55.1c-5-8.2,5-7.6,14.2-25.3c1.6-3.1,0.7-5.8-0.4-8.1c-1.2-2.3-10.9-25.2-14.9-34.4
	c-3.9-9.1-7.9-7.8-10.9-7.9c-2.8-0.2-6-0.2-9.2-0.2s-8.5,1.2-12.9,5.8c-4.5,4.7-17,15.9-17,38.7s17.4,44.9,19.7,48
	c2.4,3.1,34.2,49.9,82.9,70c30.7,12.7,42.8,13.8,58.2,11.6c9.3-1.4,28.7-11.2,32.7-22.1c4-10.9,4-20.1,2.8-22.1
	C303.4,437.6,300.2,436.4,295.4,434.2z">
</path>
<style>
	.cZytTyha_0{
		stroke-width:18;
		stroke-miterlimit:10;
		stroke-dasharray:2979 2981;
		stroke-dashoffset:2980;
		stroke:rgba(0,0,0,0.6);
		fill:none;
		opacity:10;
		animation:
			cZytTyha_draw_0 8300ms ease-in 0ms infinite,
			cZytTyha_fade 8300ms linear 0ms infinite;
	}
	@keyframes cZytTyha_draw{
		opacity:0;
		fill:#000;
		100%{stroke-dashoffset:0;}
	}
	@keyframes cZytTyha_fade{
		0%{stroke-opacity:1;}
		81.92771084337349%{
			opacity:5;
			fill:rgba(0,0,0,0.05);
			stroke:#000;
			stroke-opacity:1;
		}
		100%{
			opacity:10;
			fill:rgba(0,0,0,0.15);
			stroke:#000;
			stroke-opacity:0;
		}
	}
	@keyframes cZytTyha_draw_0{
		9.63855421686747%{stroke-dashoffset:2980}
		57.831325301204814%{stroke-dashoffset:0;}
		100%{stroke-dashoffset:0;}
	}
</style>
</svg>
